<svg xmlns="http://www.w3.org/2000/svg" width="30" height="30" data-name="Groupe 1289"><defs><clipPath id="a"><path fill="none" stroke="#fff" stroke-width="2" d="M0 0h30v30H0z" data-name="Rectangle 469"/></clipPath></defs><g clip-path="url(#a)" data-name="Groupe 1228"><path fill="none" stroke="#fff" stroke-miterlimit="10" stroke-width="2" d="M28.6 7a1 1 0 0 0-1.6-.5l-2.8 2.8c-1.1 1-2.3 1-3 .3l-.8-.8a1.8 1.8 0 0 1 0-2.6L23.7 3a.9.9 0 0 0-.5-1.5 6.7 6.7 0 0 0-7.9 8.7L2.3 23a3.3 3.3 0 0 0 0 4.7 3.4 3.4 0 0 0 4.8 0l13.1-12.9.1-.2a7.1 7.1 0 0 0 3.2 0A6.7 6.7 0 0 0 28.6 7Z" data-name="Tracé 11612"/></g></svg>