<svg xmlns="http://www.w3.org/2000/svg" width="32" height="32"><path fill="none" stroke="#fff" stroke-width="2" d="M29.9 13.3a1.4 1.4 0 0 1 1.1 1.3v2.8a1.4 1.4 0 0 1-1.1 1.3l-2.4.4a11.8 11.8 0 0 1-1.2 2.8l1.4 2a1.4 1.4 0 0 1-.1 1.7l-2 2a1.4 1.4 0 0 1-1.7.1l-2-1.4a11.9 11.9 0 0 1-2.8 1.2l-.4 2.4a1.4 1.4 0 0 1-1.3 1.1h-2.8a1.4 1.4 0 0 1-1.3-1.1l-.4-2.4a11.8 11.8 0 0 1-2.8-1.2l-2 1.4a1.4 1.4 0 0 1-1.7-.1l-2-2a1.4 1.4 0 0 1-.1-1.7l1.4-2a11.8 11.8 0 0 1-1.2-2.8l-2.4-.4A1.4 1.4 0 0 1 1 17.4v-2.8a1.4 1.4 0 0 1 1.1-1.3l2.4-.4A11.8 11.8 0 0 1 5.7 10L4.3 8a1.4 1.4 0 0 1 .1-1.7l2-2A1.4 1.4 0 0 1 8 4.3l2 1.4a11.9 11.9 0 0 1 2.8-1.2l.4-2.4A1.4 1.4 0 0 1 14.6 1h2.8a1.4 1.4 0 0 1 1.3 1.1l.4 2.4A11.8 11.8 0 0 1 22 5.7l2-1.4a1.4 1.4 0 0 1 1.7.1l2 2a1.4 1.4 0 0 1 .1 1.7l-1.4 2a11.8 11.8 0 0 1 1.2 2.8ZM16 21.5a5.5 5.5 0 1 0-5.5-5.5 5.5 5.5 0 0 0 5.5 5.5Z"/></svg>