<svg xmlns="http://www.w3.org/2000/svg" width="30" height="30"><path fill="#fff" d="M28.9 12.3a1.4 1.4 0 0 1 1.1 1.3v2.8a1.4 1.4 0 0 1-1.1 1.3l-2.4.4a11.8 11.8 0 0 1-1.2 2.8l1.4 2a1.4 1.4 0 0 1-.1 1.7l-2 2a1.4 1.4 0 0 1-1.7.1l-2-1.4a11.9 11.9 0 0 1-2.8 1.2l-.4 2.4a1.4 1.4 0 0 1-1.3 1.1h-2.8a1.4 1.4 0 0 1-1.3-1.1l-.4-2.4A11.8 11.8 0 0 1 9 25.3l-2 1.4a1.4 1.4 0 0 1-1.7-.1l-2-2a1.4 1.4 0 0 1-.1-1.7l1.4-2a11.8 11.8 0 0 1-1.2-2.8l-2.4-.4A1.4 1.4 0 0 1 0 16.4v-2.8a1.4 1.4 0 0 1 1.1-1.3l2.4-.4A11.8 11.8 0 0 1 4.7 9L3.3 7a1.4 1.4 0 0 1 .1-1.7l2-2A1.4 1.4 0 0 1 7 3.3l2 1.4a11.9 11.9 0 0 1 2.8-1.2l.4-2.4A1.4 1.4 0 0 1 13.6 0h2.8a1.4 1.4 0 0 1 1.3 1.1l.4 2.4A11.8 11.8 0 0 1 21 4.7l2-1.4a1.4 1.4 0 0 1 1.7.1l2 2a1.4 1.4 0 0 1 .1 1.7l-1.4 2a11.8 11.8 0 0 1 1.2 2.8ZM15 20.5A5.5 5.5 0 1 0 9.5 15a5.5 5.5 0 0 0 5.5 5.5Z"/></svg>