<svg xmlns="http://www.w3.org/2000/svg" width="30" height="30"><g fill="none" data-name="Groupe 1293"><g data-name="Tracé 11637"><path d="M15 0a8 8 0 0 1 8 8 8 8 0 0 1-3 6.1 7.8 7.8 0 0 1-5 1.8A8 8 0 1 1 15 0Z"/><path fill="#fff" d="M15 2a6 6 0 0 0-6 6 6 6 0 0 0 6 6c1.7 0 3-.7 3.7-1.4A6.1 6.1 0 0 0 21 8a6 6 0 0 0-6-6m0-2a8 8 0 0 1 8 8 8 8 0 0 1-3 6.1A8 8 0 1 1 15 0Z"/></g><g stroke="#fff" stroke-width="2" data-name="Rectangle 514" transform="translate(0 18)"><rect width="30" height="12" stroke="none" rx="6"/><rect width="28" height="10" x="1" y="1" rx="5"/></g></g></svg>