<svg xmlns="http://www.w3.org/2000/svg" width="30" height="30" viewBox="0 0 30 30">
  <g id="Groupe_1293" data-name="Groupe 1293" transform="translate(15236.193 -12888.895)">
    <g id="Tracé_11637" data-name="Tracé 11637" transform="translate(-15229.192 12888.895)" fill="none">
      <path d="M8,0a7.982,7.982,0,0,1,8,7.963,8.076,8.076,0,0,1-2.951,6.177A7.8,7.8,0,0,1,8,15.926,7.963,7.963,0,1,1,8,0Z" stroke="none"/>
      <path d="M 8 2.000000953674316 C 4.691590309143066 2.000000953674316 2 4.674941062927246 2 7.962890625 C 2 11.25084114074707 4.691590309143066 13.92578029632568 8 13.92578029632568 C 9.668000221252441 13.92578029632568 11.01972961425781 13.26039028167725 11.72856998443604 12.63769054412842 L 11.73677062988281 12.63053035736084 C 13.2173900604248 11.34403991699219 14 9.730000495910645 14 7.962890625 C 14 4.674941062927246 11.30841064453125 2.000000953674316 8 2.000000953674316 M 8 9.5367431640625e-07 C 12.41827964782715 9.5367431640625e-07 16 3.565110206604004 16 7.962890625 C 16 10.35089111328125 14.94392967224121 12.49337005615234 13.04854011535645 14.14025115966797 C 11.86359024047852 15.1812105178833 10.01914978027344 15.92578029632568 8 15.92578029632568 C 3.581720352172852 15.92578029632568 0 12.36067008972168 0 7.962890625 C 0 3.565110206604004 3.581720352172852 9.5367431640625e-07 8 9.5367431640625e-07 Z" stroke="none" fill="#fff"/>
    </g>
    <g id="Rectangle_514" data-name="Rectangle 514" transform="translate(-15236.192 12906.895)" fill="none" stroke="#fff" stroke-width="2">
      <rect width="30" height="12" rx="6" stroke="none"/>
      <rect x="1" y="1" width="28" height="10" rx="5" fill="none"/>
    </g>
  </g>
</svg>
