<svg xmlns="http://www.w3.org/2000/svg" width="450.348" height="696.989" viewBox="0 0 287.348 696.989">
  <text id="I" transform="matrix(0.982, 0.191, -0.191, 0.982, 262.812, 403.264)" fill="#fff" font-size="70" font-family="Mestiza-Regular, Mestiza"><tspan x="-10.325" y="0">I</tspan></text>
  <g id="Groupe_1218" data-name="Groupe 1218" transform="matrix(0.788, -0.616, 0.616, 0.788, -302.634, 321.994)">
    <text id="I-2" data-name="I" transform="translate(504.768 3.959) rotate(84.906)" fill="#fff" font-size="19" font-family="MuktaMahee-ExtraBold, Mukta Mahee" font-weight="800"><tspan x="0" y="0">I</tspan></text>
    <text id="I-3" data-name="I" transform="matrix(-0.046, 0.999, -0.999, -0.046, 505.879, 57.901)" fill="#fff" font-size="19" font-family="MuktaMahee-ExtraBold, Mukta Mahee" font-weight="800"><tspan x="0" y="0">I</tspan></text>
    <text id="I-4" data-name="I" transform="matrix(-0.153, 0.988, -0.988, -0.153, 500.792, 111.758)" fill="#fff" font-size="19" font-family="MuktaMahee-ExtraBold, Mukta Mahee" font-weight="800"><tspan x="0" y="0">I</tspan></text>
    <text id="I-5" data-name="I" transform="translate(489.89 164.699) rotate(105.256)" fill="#fff" font-size="19" font-family="MuktaMahee-ExtraBold, Mukta Mahee" font-weight="800"><tspan x="0" y="0">I</tspan></text>
    <text id="I-6" data-name="I" transform="matrix(-0.38, 0.925, -0.925, -0.38, 472.897, 215.967)" fill="#fff" font-size="19" font-family="MuktaMahee-ExtraBold, Mukta Mahee" font-weight="800"><tspan x="0" y="0">I</tspan></text>
    <text id="I-7" data-name="I" transform="matrix(-0.501, 0.866, -0.866, -0.501, 449.494, 264.595)" fill="#fff" font-size="19" font-family="MuktaMahee-ExtraBold, Mukta Mahee" font-weight="800"><tspan x="0" y="0">I</tspan></text>
    <text id="I-8" data-name="I" transform="translate(419.575 309.47) rotate(128.315)" fill="#fff" font-size="19" font-family="MuktaMahee-ExtraBold, Mukta Mahee" font-weight="800"><tspan x="0" y="0">I</tspan></text>
    <text id="I-9" data-name="I" transform="matrix(-0.734, 0.679, -0.679, -0.734, 383.346, 349.314)" fill="red" font-size="40" font-family="MuktaMahee-ExtraBold, Mukta Mahee" font-weight="800"><tspan x="0" y="0">I</tspan></text>
    <text id="I-10" data-name="I" transform="translate(337.323 386.947) rotate(145.853)" fill="#fff" font-size="19" font-family="MuktaMahee-ExtraBold, Mukta Mahee" font-weight="800"><tspan x="0" y="0">I</tspan></text>
    <text id="I-11" data-name="I" transform="matrix(-0.894, 0.447, -0.447, -0.894, 290.909, 414.519)" fill="#fff" font-size="19" font-family="MuktaMahee-ExtraBold, Mukta Mahee" font-weight="800"><tspan x="0" y="0">I</tspan></text>
    <text id="I-12" data-name="I" transform="matrix(-0.941, 0.34, -0.34, -0.941, 241.358, 436.076)" fill="#fff" font-size="19" font-family="MuktaMahee-ExtraBold, Mukta Mahee" font-weight="800"><tspan x="0" y="0">I</tspan></text>
    <text id="I-13" data-name="I" transform="translate(189.656 452.066) rotate(165.973)" fill="#fff" font-size="19" font-family="MuktaMahee-ExtraBold, Mukta Mahee" font-weight="800"><tspan x="0" y="0">I</tspan></text>
    <text id="I-14" data-name="I" transform="translate(136.624 463.091) rotate(170.956)" fill="#fff" font-size="19" font-family="MuktaMahee-ExtraBold, Mukta Mahee" font-weight="800"><tspan x="0" y="0">I</tspan></text>
    <text id="I-15" data-name="I" transform="translate(82.799 469.791) rotate(175.206)" fill="#fff" font-size="19" font-family="MuktaMahee-ExtraBold, Mukta Mahee" font-weight="800"><tspan x="0" y="0">I</tspan></text>
    <text id="I-16" data-name="I" transform="translate(28.608 472.756) rotate(178.835)" fill="#fff" font-size="19" font-family="MuktaMahee-ExtraBold, Mukta Mahee" font-weight="800"><tspan x="0" y="0">I</tspan></text>
  </g>
</svg>
