<svg xmlns="http://www.w3.org/2000/svg" id="Calque_1" data-name="Calque 1" viewBox="0 0 210.7 45.8"><defs><clipPath id="clippath"><path d="M0 0h210.7v20H0z" style="fill:none"/></clipPath><style>.cls-3{fill:#fff}</style></defs><g style="clip-path:url(#clippath)"><path d="m60.2 12.7-.4-.6-2-2.3c.4-.9.6-2 .6-3v-.5l.2-.8h-2l.2.8c0 .8 0 1.5-.2 2l-4.8-5.8h5.8l.8.2v-2h-9l.2.8v1l1.5 1.8c-1.8.5-2.9 2.2-2.9 4.4 0 2.7 2 4.9 4.7 4.9 1.8 0 3.2-.8 4.2-2.2l1.2 1.4-.2.6H61l-.8-.7Zm-7.3-.8a3 3 0 0 1-3-3.2c0-1.7.8-2.7 2.4-3.1l3.7 4.5a3.4 3.4 0 0 1-3 1.8ZM122.5 18.6l-.3-.7-5.5-16.2V.5h-4.5v1.2L106.3 18l-.2.6-.8 1.2h4.2l-.5-1.1.1-.5 1-2.9h8.4l1 3.2v.2l-.4 1.1h4.2l-.8-1.2Zm-11.4-6 3.4-9.3 3.1 9.4h-6.5ZM84.9 19.7h-3.4l.3-1.2v-14L77 17.8l-.4 1.3.1.6h-4.2l.1-.7-5.2-14.5v14l.3 1.2h-3.3l.2-1.2V1.6L64.4.4h4.5l5.7 16.5L80.3.4h4.6l-.3 1.2v16.9l.3 1.2ZM149.2 18v.6-.7ZM192.9.4l-.3 1.2v10.8c-.1 5-2.7 7.6-7.7 7.6s-7.6-2.9-7.6-7.6V1.6l-.2-1.2h3.3l-.3 1.2v10.7c0 3.2 1.9 5.2 4.8 5.2s4.8-2 4.9-5.1V1.6l-.1-1.2h3.2ZM173 18.6l.4 1.2H170l.2-1.2v-7.2h-9.6v7.2l.3 1.2h-3.3l.2-1.2v-17l-.2-1.2h3.3l-.3 1.1v7.1h9.6v-7L170 .4h3.4l-.3 1.2v17ZM155 0v3.2l-1.1-.3h-4.7v15.7l.3 1.2h-3.3l.2-1.2V3h-4.6l-1.2.3V0l1.2.3H154l1.2-.3ZM139.7 20l-1-1.2S138 12 136 11c2-.7 3.1-2.5 3.1-5 0-3.5-2.3-5.5-6.2-5.5h-7.9l.4 1.2v17l-.2 1.2h3.1l-.3-1.2v-7.2h4.9c3.1 2 3.4 7.3 3.4 7.3l-.5 1.1h4ZM127.9 3h4.7c2.5 0 3.7 1 3.7 3.2s-1.2 3-3.8 3H128V3.1ZM210.7 20l-1-1.2S209 12 207 11c2-.7 3.1-2.5 3.1-5 0-3.5-2.2-5.5-6.2-5.5h-7.9l.4 1.2v17l-.2 1.2h3.2l-.3-1.2v-7.2h4.8c3.1 2 3.4 7.3 3.4 7.3l-.5 1.1h4ZM198.9 3h4.7c2.5 0 3.7 1 3.7 3.2s-1.2 3-3.7 3h-4.7V3.1ZM199 18v.7-.6ZM49.5 17v2.9l-1.2-.2H37.9V1.6L37.6.4H41l-.3 1.2v15.5h7.6l1.2-.2ZM15.4 14l.4 3.6S13 20 9 20c-2.5 0-4.5-.9-6-2.5a11 11 0 0 1-3-7.8C0 4 3.7 0 9 0c4 0 6.4 1.5 6.4 1.5l-.4 1 .1 3.8s-2-3.6-5.8-3.6C5 2.7 2.9 6.1 2.8 9.5a8 8 0 0 0 1.8 5.7 6 6 0 0 0 4.5 2c2.6 0 3.6-1 5.9-2.8l.4-.3ZM103.3 14l.4 3.6S101 20 96.9 20c-2.5 0-4.5-.8-6-2.5a11 11 0 0 1-3-7.8c0-5.6 3.7-9.6 9-9.6a13 13 0 0 1 6.4 1.5l-.4 1 .1 3.8s-2-3.6-5.8-3.6c-4.3 0-6.4 3.4-6.5 6.8a8 8 0 0 0 1.8 5.7 6 6 0 0 0 4.5 2c2.6 0 3.6-1 5.9-2.8l.4-.3ZM26.5 19.8c-5.8 0-8.7-4-8.7-9.5C17.8 6 19.1 0 26.5 0c6.8 0 8.7 5.2 8.7 10.3 0 4-2 9.5-8.7 9.5Zm4-15.7c-1-1-2.4-1.5-4-1.5-1.5 0-2.8.5-3.8 1.5-1.3 1.4-2 3.5-2 6.2 0 6.3 4.4 6.8 5.8 6.8 4 0 5.8-3.5 5.8-6.8 0-2.8-.6-5-1.9-6.2Z" class="cls-3"/></g><text style="fill:#fff;font-family:FacultyGlyphic-Regular,&quot;Faculty Glyphic&quot;;font-size:19.2px" transform="translate(29 40.5)"><tspan x="0" y="0">M</tspan><tspan x="17.6" y="0" style="letter-spacing:0">A</tspan><tspan x="32.9" y="0" style="letter-spacing:0">INTEN</tspan><tspan x="95.1" y="0" style="letter-spacing:0">A</tspan><tspan x="110.4" y="0">N</tspan><tspan x="126" y="0" style="letter-spacing:0">C</tspan><tspan x="140.5" y="0">E</tspan></text></svg>